# 3ds Max Wavefront OBJ Exporter v0.97b - (c)2007 guruware
# File Created: 07.01.2014 02:47:34

mtllib TAVOLO.mtl

#
# object TAVOLO
#

v  35.6974 40.0000 59.5749
v  22.7482 10.0000 59.5749
v  22.7482 10.0000 17.4251
v  35.6974 40.0000 17.4251
v  35.8741 40.3272 59.5749
v  35.8741 40.3272 17.4251
v  36.0491 40.6544 59.5749
v  36.0491 40.6544 17.4251
v  36.2208 40.9816 59.5749
v  36.2208 40.9816 17.4251
v  36.3877 41.3088 59.5749
v  36.3877 41.3088 17.4251
v  36.5480 41.6360 59.5749
v  36.5480 41.6360 17.4251
v  36.7002 41.9631 59.5749
v  36.7002 41.9632 17.4251
v  36.8426 42.2903 59.5749
v  36.8426 42.2903 17.4251
v  39.3132 46.8413 59.5749
v  39.3132 46.8413 17.4251
v  42.7253 51.1379 59.5749
v  42.7253 51.1379 17.4251
v  46.8869 55.0196 59.5749
v  46.8869 55.0196 17.4251
v  51.6058 58.3255 59.5749
v  51.6058 58.3255 17.4251
v  56.6902 60.8951 59.5749
v  56.6902 60.8951 17.4251
v  61.9478 62.5677 59.5749
v  61.9478 62.5677 17.4251
v  67.1867 63.1827 59.5749
v  67.1867 63.1827 17.4251
v  67.5878 63.1833 59.5749
v  67.5878 63.1833 17.4251
v  67.5898 63.1833 59.5749
v  67.5898 63.1833 17.4251
v  150.0000 63.1833 59.5749
v  150.0000 63.1833 17.4251
v  150.2000 63.1833 59.5749
v  150.2000 63.1833 17.4251
v  155.6771 62.5320 59.5749
v  155.6771 62.5320 17.4251
v  161.2200 60.7020 59.5749
v  161.2200 60.7020 17.4251
v  166.6149 57.8792 59.5749
v  166.6149 57.8793 17.4251
v  171.6480 54.2496 59.5749
v  171.6480 54.2496 17.4251
v  176.1055 49.9990 59.5749
v  176.1055 49.9990 17.4251
v  179.7736 45.3133 59.5749
v  179.7736 45.3133 17.4251
v  182.4384 40.3784 59.5749
v  182.4384 40.3784 17.4251
v  182.4815 40.2796 59.5749
v  182.4815 40.2796 17.4251
v  182.5211 40.1952 59.5749
v  182.5211 40.1953 17.4251
v  182.5563 40.1257 59.5749
v  182.5563 40.1257 17.4251
v  182.5857 40.0711 59.5749
v  182.5857 40.0711 17.4251
v  182.6082 40.0318 59.5749
v  182.6082 40.0318 17.4251
v  182.6226 40.0080 59.5749
v  182.6226 40.0080 17.4251
v  182.6276 40.0000 59.5749
v  182.6276 40.0000 17.4251
v  194.8375 10.0000 59.5749
v  194.8375 10.0000 17.4251
v  200.0000 10.0000 59.5749
v  200.0000 10.0000 17.4251
v  188.4178 40.0000 59.5749
v  188.4178 40.0000 17.4251
v  188.3178 40.2000 59.5749
v  188.3178 40.2000 17.4251
v  185.4281 45.5277 59.5749
v  185.4281 45.5278 17.4251
v  182.2195 50.5340 59.5749
v  182.2195 50.5340 17.4251
v  178.6636 55.1919 59.5749
v  178.6636 55.1919 17.4251
v  174.7321 59.4744 59.5749
v  174.7321 59.4744 17.4251
v  170.3965 63.3545 59.5749
v  170.3965 63.3545 17.4251
v  165.6284 66.8053 59.5749
v  165.6284 66.8053 17.4251
v  160.3995 69.7998 59.5749
v  160.3995 69.7998 17.4251
v  160.0020 69.9990 59.5749
v  160.0020 69.9990 17.4251
v  160.0000 70.0000 59.5749
v  160.0000 70.0000 17.4251
v  130.0000 70.0000 59.5749
v  130.0000 70.0000 17.4251
v  87.5898 70.0000 59.5749
v  87.5898 70.0000 17.4251
v  57.5898 70.0000 59.5749
v  57.5898 70.0000 17.4251
v  57.3898 69.9000 59.5749
v  57.3898 69.9000 17.4251
v  52.1499 66.9059 59.5749
v  52.1499 66.9059 17.4251
v  47.4161 63.4499 59.5749
v  47.4161 63.4499 17.4251
v  43.1435 59.5594 59.5749
v  43.1435 59.5594 17.4251
v  39.2868 55.2618 59.5749
v  39.2868 55.2618 17.4251
v  35.8011 50.5844 59.5749
v  35.8011 50.5844 17.4251
v  32.6411 45.5547 59.5749
v  32.6411 45.5547 17.4251
v  29.7618 40.2000 59.5749
v  29.7618 40.2000 17.4251
v  29.6618 40.0000 59.5749
v  29.6618 40.0000 17.4251
v  17.5898 10.0000 59.5749
v  17.5898 10.0000 17.4251
v  22.7482 10.0000 -0.0000
v  17.5898 10.0000 -0.0000
v  29.6618 40.0000 0.0000
v  35.6974 40.0000 0.0000
v  29.7618 40.2000 0.0000
v  32.6411 45.5547 0.0000
v  35.8741 40.3272 0.0000
v  36.0491 40.6544 0.0000
v  36.2208 40.9816 0.0000
v  36.3877 41.3088 0.0000
v  36.5480 41.6360 0.0000
v  36.7002 41.9632 0.0000
v  36.8426 42.2903 0.0000
v  39.3132 46.8413 0.0000
v  35.8011 50.5844 0.0000
v  42.7253 51.1380 0.0000
v  39.2868 55.2618 0.0000
v  46.8869 55.0196 0.0000
v  43.1435 59.5594 0.0000
v  47.4161 63.4499 0.0000
v  51.6058 58.3255 0.0000
v  52.1499 66.9059 0.0000
v  56.6902 60.8951 0.0000
v  57.3898 69.9000 0.0000
v  57.5898 70.0000 0.0000
v  61.9478 62.5677 0.0000
v  67.1867 63.1827 0.0000
v  67.5878 63.1833 0.0000
v  67.5898 63.1833 0.0000
v  87.5898 70.0000 0.0000
v  130.0000 70.0000 0.0000
v  150.0000 63.1833 0.0000
v  150.2000 63.1833 0.0000
v  155.6771 62.5320 0.0000
v  160.0000 70.0000 0.0000
v  160.0020 69.9990 0.0000
v  160.3995 69.7998 0.0000
v  161.2200 60.7020 0.0000
v  165.6284 66.8053 0.0000
v  166.6149 57.8793 0.0000
v  170.3965 63.3545 0.0000
v  174.7321 59.4744 0.0000
v  171.6480 54.2496 0.0000
v  178.6636 55.1919 0.0000
v  176.1055 49.9990 0.0000
v  182.2195 50.5340 0.0000
v  179.7736 45.3133 0.0000
v  185.4281 45.5278 0.0000
v  182.4384 40.3784 0.0000
v  182.4815 40.2796 0.0000
v  182.5211 40.1953 0.0000
v  182.5563 40.1257 0.0000
v  182.5857 40.0711 0.0000
v  182.6082 40.0318 0.0000
v  182.6226 40.0080 0.0000
v  182.6276 40.0000 0.0000
v  188.3178 40.2000 0.0000
v  188.4178 40.0000 0.0000
v  194.8375 10.0000 -0.0000
v  200.0000 10.0000 -0.0000
v  194.8375 10.0000 77.0000
v  200.0000 10.0000 77.0000
v  188.4178 40.0000 77.0000
v  182.6276 40.0000 77.0000
v  29.6618 40.0000 77.0000
v  17.5898 10.0000 77.0000
v  22.7482 10.0000 77.0000
v  35.6974 40.0000 77.0000
v  29.7618 40.2000 77.0000
v  32.6411 45.5547 77.0000
v  35.8741 40.3272 77.0000
v  36.0491 40.6544 77.0000
v  36.2208 40.9816 77.0000
v  36.3877 41.3088 77.0000
v  36.5480 41.6360 77.0000
v  36.7002 41.9631 77.0000
v  36.8426 42.2903 77.0000
v  39.3132 46.8413 77.0000
v  35.8011 50.5844 77.0000
v  42.7253 51.1379 77.0000
v  39.2868 55.2618 77.0000
v  46.8869 55.0196 77.0000
v  43.1435 59.5594 77.0000
v  47.4161 63.4499 77.0000
v  51.6058 58.3255 77.0000
v  52.1499 66.9059 77.0000
v  56.6902 60.8951 77.0000
v  57.3898 69.9000 77.0000
v  57.5898 70.0000 77.0000
v  61.9478 62.5677 77.0000
v  67.1867 63.1827 77.0000
v  67.5878 63.1833 77.0000
v  67.5898 63.1833 77.0000
v  87.5898 70.0000 77.0000
v  130.0000 70.0000 77.0000
v  150.0000 63.1833 77.0000
v  150.2000 63.1833 77.0000
v  155.6771 62.5320 77.0000
v  160.0000 70.0000 77.0000
v  160.0020 69.9990 77.0000
v  160.3995 69.7998 77.0000
v  161.2200 60.7020 77.0000
v  165.6284 66.8053 77.0000
v  166.6149 57.8792 77.0000
v  170.3965 63.3545 77.0000
v  174.7321 59.4744 77.0000
v  171.6480 54.2496 77.0000
v  178.6636 55.1919 77.0000
v  176.1055 49.9990 77.0000
v  182.2195 50.5340 77.0000
v  179.7736 45.3133 77.0000
v  185.4281 45.5277 77.0000
v  182.4384 40.3784 77.0000
v  182.4815 40.2796 77.0000
v  182.5211 40.1952 77.0000
v  182.5563 40.1257 77.0000
v  182.5857 40.0711 77.0000
v  182.6082 40.0318 77.0000
v  182.6226 40.0080 77.0000
v  188.3178 40.2000 77.0000
# 240 vertices

vn 0.9181 -0.3963 -0.0000
vn 0.8809 -0.4734 -0.0000
vn 0.8800 -0.4751 -0.0000
vn 0.8836 -0.4682 -0.0000
vn 0.8882 -0.4595 -0.0000
vn 0.8944 -0.4472 -0.0000
vn 0.9024 -0.4309 -0.0000
vn 0.9119 -0.4104 -0.0000
vn 0.8987 -0.4385 -0.0000
vn 0.8341 -0.5516 -0.0000
vn 0.7346 -0.6785 -0.0000
vn 0.6295 -0.7770 -0.0000
vn 0.5137 -0.8580 -0.0000
vn 0.3783 -0.9257 -0.0000
vn 0.2108 -0.9775 -0.0000
vn 0.0592 -0.9982 -0.0000
vn 0.0008 -1.0000 -0.0000
vn 0.0000 -1.0000 -0.0000
vn -0.0591 -0.9982 -0.0000
vn -0.2169 -0.9762 -0.0000
vn -0.3899 -0.9209 -0.0000
vn -0.5256 -0.8507 -0.0000
vn -0.6390 -0.7692 -0.0000
vn -0.7407 -0.6718 -0.0000
vn -0.8367 -0.5477 -0.0000
vn -0.8991 -0.4378 -0.0000
vn -0.9108 -0.4128 -0.0000
vn -0.8988 -0.4384 -0.0000
vn -0.8866 -0.4626 -0.0000
vn -0.8743 -0.4854 -0.0000
vn -0.8622 -0.5066 -0.0000
vn -0.8508 -0.5254 -0.0000
vn -0.8455 -0.5340 -0.0000
vn -0.9262 -0.3770 -0.0000
vn 0.9329 0.3602 0.0000
vn 0.8869 0.4621 0.0000
vn 0.8944 0.4472 0.0000
vn 0.8610 0.5085 0.0000
vn 0.8191 0.5737 0.0000
vn 0.7665 0.6422 0.0000
vn 0.7026 0.7116 0.0000
vn 0.6274 0.7787 0.0000
vn 0.5424 0.8401 0.0000
vn 0.4726 0.8813 0.0000
vn 0.4476 0.8942 0.0000
vn 0.4472 0.8944 0.0000
vn 0.0000 1.0000 0.0000
vn -0.0000 1.0000 0.0000
vn -0.4718 0.8817 0.0000
vn -0.4472 0.8944 0.0000
vn -0.5437 0.8393 0.0000
vn -0.6324 0.7747 0.0000
vn -0.7097 0.7045 0.0000
vn -0.7738 0.6334 0.0000
vn -0.8249 0.5652 0.0000
vn -0.8642 0.5031 0.0000
vn -0.8877 0.4604 0.0000
vn -0.8944 0.4472 0.0000
vn -0.9277 0.3733 0.0000
vn -0.0000 -1.0000 -0.0000
vn 0.0000 0.0000 -1.0000
vn -0.0000 0.0000 -1.0000
vn 0.0000 -0.0000 -1.0000
vn -0.0000 -0.0000 -1.0000
vn 0.0000 -0.0000 1.0000
# 65 vertex normals

g TAVOLO
usemtl Material__63
s 1
f 1//1 2//1 3//1 4//1 
s 4
f 5//2 1//3 4//3 6//2 
f 7//4 5//2 6//2 8//4 
f 9//5 7//4 8//4 10//5 
f 11//6 9//5 10//5 12//6 
f 13//7 11//6 12//6 14//7 
f 15//8 13//7 14//7 16//8 
f 17//9 15//8 16//8 18//9 
f 19//10 17//9 18//9 20//10 
f 21//11 19//10 20//10 22//11 
f 23//12 21//11 22//11 24//12 
f 25//13 23//12 24//12 26//13 
f 27//14 25//13 26//13 28//14 
f 29//15 27//14 28//14 30//15 
usemtl wire_229154215
f 31//16 29//15 30//15 32//16 
f 33//17 31//16 32//16 34//17 
f 35//18 33//17 34//17 36//18 
s 2
f 37//18 35//18 36//18 38//18 
s 4
f 39//19 37//18 38//18 40//19 
f 41//20 39//19 40//19 42//20 
f 43//21 41//20 42//20 44//21 
usemtl Material__63
f 45//22 43//21 44//21 46//22 
f 47//23 45//22 46//22 48//23 
f 49//24 47//23 48//23 50//24 
f 51//25 49//24 50//24 52//25 
f 53//26 51//25 52//25 54//26 
f 55//27 53//26 54//26 56//27 
f 57//28 55//27 56//27 58//28 
f 59//29 57//28 58//28 60//29 
f 61//30 59//29 60//29 62//30 
f 63//31 61//30 62//30 64//31 
f 65//32 63//31 64//31 66//32 
f 67//33 65//32 66//32 68//33 
s 2
f 69//34 67//34 68//34 70//34 
s 4
f 71//18 69//18 70//18 72//18 
s 2
f 73//35 71//35 72//35 74//35 
s 4
f 75//36 73//37 74//37 76//36 
f 77//38 75//36 76//36 78//38 
f 79//39 77//38 78//38 80//39 
f 81//40 79//39 80//39 82//40 
f 83//41 81//40 82//40 84//41 
f 85//42 83//41 84//41 86//42 
f 87//43 85//42 86//42 88//43 
f 89//44 87//43 88//43 90//44 
f 91//45 89//44 90//44 92//45 
f 93//46 91//45 92//45 94//46 
usemtl wire_229154215
s 2
f 95//47 93//47 94//47 96//47 
s 4
f 97//48 95//48 96//48 98//47 
s 2
f 99//47 97//47 98//47 100//47 
usemtl Material__63
s 4
f 101//49 99//50 100//50 102//49 
f 103//51 101//49 102//49 104//51 
f 105//52 103//51 104//51 106//52 
f 107//53 105//52 106//52 108//53 
f 109//54 107//53 108//53 110//54 
f 111//55 109//54 110//54 112//55 
f 113//56 111//55 112//55 114//56 
f 115//57 113//56 114//56 116//57 
f 117//58 115//57 116//57 118//58 
s 2
f 119//59 117//59 118//59 120//59 
s 4
f 2//60 119//18 120//18 3//18 
s 16
f 121//61 122//61 123//61 124//61 
f 124//61 123//61 125//61 126//61 
f 127//61 124//61 126//61 128//61 
f 129//61 128//61 126//61 130//61 
f 131//61 130//61 126//61 132//61 
f 133//61 132//61 126//61 134//61 
f 134//61 126//61 135//61 136//61 
f 136//61 135//61 137//61 138//61 
f 138//61 137//61 139//61 140//62 
f 141//62 138//61 140//62 142//62 
f 143//61 141//62 142//62 144//61 
f 143//61 144//61 145//61 146//61 
f 147//63 146//61 145//61 148//63 
f 149//64 148//63 145//61 150//63 
f 149//64 150//63 151//62 152//62 
f 153//61 152//62 151//62 154//61 
f 154//61 151//62 155//61 156//61 
f 154//61 156//61 157//61 158//61 
f 158//61 157//61 159//61 160//61 
f 160//61 159//61 161//61 162//61 
f 163//61 160//61 162//61 164//61 
f 165//61 163//61 164//61 166//61 
f 167//61 165//61 166//61 168//61 
f 169//61 167//61 168//61 170//61 
f 171//61 170//61 168//61 172//61 
f 173//61 172//61 168//61 174//61 
f 175//61 174//61 168//61 176//61 
f 176//61 168//61 177//61 178//61 
f 179//61 176//61 178//61 180//61 
f 181//65 182//65 183//65 184//65 
f 185//65 186//65 187//65 188//65 
f 189//65 185//65 188//65 190//65 
f 190//65 188//65 191//65 192//65 
f 190//65 192//65 193//65 194//65 
f 190//65 194//65 195//65 196//65 
f 190//65 196//65 197//65 198//65 
f 199//65 190//65 198//65 200//65 
f 201//65 199//65 200//65 202//65 
f 203//65 201//65 202//65 204//65 
f 204//65 202//65 205//65 206//65 
f 206//65 205//65 207//65 208//65 
f 209//65 208//65 207//65 210//65 
f 209//65 210//65 211//65 212//65 
f 209//65 212//65 213//65 214//65 
f 215//65 214//65 213//65 216//65 
f 215//65 216//65 217//65 218//65 
f 219//65 215//65 218//65 220//65 
f 221//65 220//65 218//65 222//65 
f 223//65 221//65 222//65 224//65 
f 225//65 223//65 224//65 226//65 
f 226//65 224//65 227//65 228//65 
f 228//65 227//65 229//65 230//65 
f 230//65 229//65 231//65 232//65 
f 232//65 231//65 233//65 234//65 
f 232//65 234//65 235//65 236//65 
f 232//65 236//65 237//65 238//65 
f 232//65 238//65 239//65 184//65 
f 240//65 232//65 184//65 183//65 
s 1
f 188//1 187//1 2//1 1//1 
f 121//1 124//1 4//1 3//1 
s 4
f 191//2 188//3 1//3 5//2 
f 124//3 127//2 6//2 4//3 
f 192//4 191//2 5//2 7//4 
f 127//2 128//4 8//4 6//2 
f 193//5 192//4 7//4 9//5 
f 128//4 129//5 10//5 8//4 
f 194//6 193//5 9//5 11//6 
f 129//5 130//6 12//6 10//5 
f 195//7 194//6 11//6 13//7 
f 130//6 131//7 14//7 12//6 
f 196//8 195//7 13//7 15//8 
f 131//7 132//8 16//8 14//7 
f 197//9 196//8 15//8 17//9 
f 132//8 133//9 18//9 16//8 
f 198//10 197//9 17//9 19//10 
f 133//9 134//10 20//10 18//9 
f 200//11 198//10 19//10 21//11 
f 134//10 136//11 22//11 20//10 
f 202//12 200//11 21//11 23//12 
f 136//11 138//12 24//12 22//11 
f 205//13 202//12 23//12 25//13 
f 138//12 141//13 26//13 24//12 
f 207//14 205//13 25//13 27//14 
f 141//13 143//14 28//14 26//13 
f 210//15 207//14 27//14 29//15 
f 143//14 146//15 30//15 28//14 
usemtl wire_229154215
f 211//16 210//15 29//15 31//16 
f 146//15 147//16 32//16 30//15 
f 212//17 211//16 31//16 33//17 
f 147//16 148//17 34//17 32//16 
f 213//18 212//17 33//17 35//18 
f 148//17 149//18 36//18 34//17 
usemtl Material__63
s 2
f 216//18 213//18 35//18 37//18 
f 149//18 152//18 38//18 36//18 
s 4
f 217//19 216//18 37//18 39//19 
usemtl wire_229154215
f 152//18 153//19 40//19 38//18 
usemtl Material__63
f 218//20 217//19 39//19 41//20 
usemtl wire_229154215
f 153//19 154//20 42//20 40//19 
f 222//21 218//20 41//20 43//21 
f 154//20 158//21 44//21 42//20 
usemtl Material__63
f 224//22 222//21 43//21 45//22 
f 158//21 160//22 46//22 44//21 
f 227//23 224//22 45//22 47//23 
f 160//22 163//23 48//23 46//22 
f 229//24 227//23 47//23 49//24 
f 163//23 165//24 50//24 48//23 
f 231//25 229//24 49//24 51//25 
f 165//24 167//25 52//25 50//24 
f 233//26 231//25 51//25 53//26 
f 167//25 169//26 54//26 52//25 
f 234//27 233//26 53//26 55//27 
f 169//26 170//27 56//27 54//26 
f 235//28 234//27 55//27 57//28 
f 170//27 171//28 58//28 56//27 
f 236//29 235//28 57//28 59//29 
f 171//28 172//29 60//29 58//28 
f 237//30 236//29 59//29 61//30 
f 172//29 173//30 62//30 60//29 
f 238//31 237//30 61//30 63//31 
f 173//30 174//31 64//31 62//30 
f 239//32 238//31 63//31 65//32 
f 174//31 175//32 66//32 64//31 
f 184//33 239//32 65//32 67//33 
f 175//32 176//33 68//33 66//32 
s 2
f 181//34 184//34 67//34 69//34 
f 176//34 179//34 70//34 68//34 
s 4
f 182//18 181//18 69//18 71//18 
f 179//18 180//18 72//18 70//18 
s 2
f 183//35 182//35 71//35 73//35 
f 180//35 178//35 74//35 72//35 
s 4
f 240//36 183//37 73//37 75//36 
f 178//37 177//36 76//36 74//37 
f 232//38 240//36 75//36 77//38 
f 177//36 168//38 78//38 76//36 
f 230//39 232//38 77//38 79//39 
f 168//38 166//39 80//39 78//38 
f 228//40 230//39 79//39 81//40 
f 166//39 164//40 82//40 80//39 
f 226//41 228//40 81//40 83//41 
f 164//40 162//41 84//41 82//40 
f 225//42 226//41 83//41 85//42 
f 162//41 161//42 86//42 84//41 
f 223//43 225//42 85//42 87//43 
f 161//42 159//43 88//43 86//42 
f 221//44 223//43 87//43 89//44 
f 159//43 157//44 90//44 88//43 
f 220//45 221//44 89//44 91//45 
f 157//44 156//45 92//45 90//44 
f 219//46 220//45 91//45 93//46 
f 156//45 155//46 94//46 92//45 
s 2
f 215//47 219//47 93//47 95//47 
f 155//47 151//47 96//47 94//47 
s 4
f 214//48 215//48 95//48 97//48 
f 151//47 150//47 98//47 96//48 
s 2
f 209//47 214//47 97//47 99//47 
f 150//47 145//47 100//47 98//47 
s 4
f 208//49 209//50 99//50 101//49 
f 145//50 144//49 102//49 100//50 
f 206//51 208//49 101//49 103//51 
f 144//49 142//51 104//51 102//49 
f 204//52 206//51 103//51 105//52 
f 142//51 140//52 106//52 104//51 
f 203//53 204//52 105//52 107//53 
f 140//52 139//53 108//53 106//52 
f 201//54 203//53 107//53 109//54 
f 139//53 137//54 110//54 108//53 
f 199//55 201//54 109//54 111//55 
f 137//54 135//55 112//55 110//54 
f 190//56 199//55 111//55 113//56 
f 135//55 126//56 114//56 112//55 
f 189//57 190//56 113//56 115//57 
f 126//56 125//57 116//57 114//56 
f 185//58 189//57 115//57 117//58 
f 125//57 123//58 118//58 116//57 
s 2
f 186//59 185//59 117//59 119//59 
f 123//59 122//59 120//59 118//59 
s 4
f 187//18 186//18 119//18 2//60 
f 122//18 121//18 3//18 120//18 
# 238 polygons

